<mxfile host="app.diagrams.net" modified="2024-06-12T07:28:55.375Z" agent="Mozilla/5.0 (Windows NT 10.0; Win64; x64) AppleWebKit/537.36 (KHTML, like Gecko) Chrome/125.0.0.0 Safari/537.36 Edg/125.0.0.0" etag="Wbq1WyK6zjT3OtNcCnoB" version="24.3.1" type="device">
  <diagram name="第 1 页" id="AFHFQIstp3RBvhfX0TRP">
    <mxGraphModel dx="1869" dy="535" grid="1" gridSize="10" guides="1" tooltips="1" connect="1" arrows="1" fold="1" page="1" pageScale="1" pageWidth="827" pageHeight="1169" math="0" shadow="0">
      <root>
        <mxCell id="0" />
        <mxCell id="1" parent="0" />
        <mxCell id="3Yn5QqjvRgR_XOIUeVAF-117" value="" style="rounded=0;whiteSpace=wrap;html=1;" vertex="1" parent="1">
          <mxGeometry x="220" y="510" width="540" height="60" as="geometry" />
        </mxCell>
        <mxCell id="3Yn5QqjvRgR_XOIUeVAF-116" value="" style="rounded=0;whiteSpace=wrap;html=1;" vertex="1" parent="1">
          <mxGeometry x="220" y="370" width="540" height="60" as="geometry" />
        </mxCell>
        <mxCell id="3Yn5QqjvRgR_XOIUeVAF-111" value="" style="rounded=0;whiteSpace=wrap;html=1;" vertex="1" parent="1">
          <mxGeometry x="220" y="230" width="540" height="60" as="geometry" />
        </mxCell>
        <mxCell id="3Yn5QqjvRgR_XOIUeVAF-17" value="&lt;font style=&quot;font-size: 20px;&quot;&gt;t1&lt;/font&gt;" style="rounded=0;whiteSpace=wrap;html=1;" vertex="1" parent="1">
          <mxGeometry x="-30" y="240" width="90" height="40" as="geometry" />
        </mxCell>
        <mxCell id="3Yn5QqjvRgR_XOIUeVAF-112" style="edgeStyle=orthogonalEdgeStyle;rounded=0;orthogonalLoop=1;jettySize=auto;html=1;entryX=0;entryY=0.5;entryDx=0;entryDy=0;" edge="1" parent="1" source="3Yn5QqjvRgR_XOIUeVAF-31" target="3Yn5QqjvRgR_XOIUeVAF-111">
          <mxGeometry relative="1" as="geometry" />
        </mxCell>
        <mxCell id="3Yn5QqjvRgR_XOIUeVAF-31" value="&lt;font style=&quot;font-size: 20px;&quot;&gt;events_ptr&lt;/font&gt;" style="rounded=0;whiteSpace=wrap;html=1;" vertex="1" parent="1">
          <mxGeometry x="60" y="240" width="100" height="40" as="geometry" />
        </mxCell>
        <mxCell id="3Yn5QqjvRgR_XOIUeVAF-32" value="&lt;font style=&quot;font-size: 20px;&quot;&gt;t2&lt;/font&gt;" style="rounded=0;whiteSpace=wrap;html=1;" vertex="1" parent="1">
          <mxGeometry x="-30" y="380" width="90" height="40" as="geometry" />
        </mxCell>
        <mxCell id="3Yn5QqjvRgR_XOIUeVAF-118" style="edgeStyle=orthogonalEdgeStyle;rounded=0;orthogonalLoop=1;jettySize=auto;html=1;exitX=1;exitY=0.5;exitDx=0;exitDy=0;entryX=0;entryY=0.5;entryDx=0;entryDy=0;" edge="1" parent="1" source="3Yn5QqjvRgR_XOIUeVAF-34" target="3Yn5QqjvRgR_XOIUeVAF-116">
          <mxGeometry relative="1" as="geometry" />
        </mxCell>
        <mxCell id="3Yn5QqjvRgR_XOIUeVAF-34" value="&lt;span style=&quot;font-size: 20px;&quot;&gt;events_ptr&lt;/span&gt;" style="rounded=0;whiteSpace=wrap;html=1;" vertex="1" parent="1">
          <mxGeometry x="60" y="380" width="100" height="40" as="geometry" />
        </mxCell>
        <mxCell id="3Yn5QqjvRgR_XOIUeVAF-37" value="&lt;font style=&quot;font-size: 20px;&quot;&gt;t3&lt;/font&gt;" style="rounded=0;whiteSpace=wrap;html=1;" vertex="1" parent="1">
          <mxGeometry x="-30" y="520" width="90" height="40" as="geometry" />
        </mxCell>
        <mxCell id="3Yn5QqjvRgR_XOIUeVAF-119" style="edgeStyle=orthogonalEdgeStyle;rounded=0;orthogonalLoop=1;jettySize=auto;html=1;exitX=1;exitY=0.5;exitDx=0;exitDy=0;entryX=0;entryY=0.5;entryDx=0;entryDy=0;" edge="1" parent="1" source="3Yn5QqjvRgR_XOIUeVAF-38" target="3Yn5QqjvRgR_XOIUeVAF-117">
          <mxGeometry relative="1" as="geometry" />
        </mxCell>
        <mxCell id="3Yn5QqjvRgR_XOIUeVAF-38" value="&lt;span style=&quot;font-size: 20px;&quot;&gt;events_ptr&lt;/span&gt;" style="rounded=0;whiteSpace=wrap;html=1;" vertex="1" parent="1">
          <mxGeometry x="60" y="520" width="100" height="40" as="geometry" />
        </mxCell>
        <mxCell id="3Yn5QqjvRgR_XOIUeVAF-42" value="&lt;font style=&quot;font-size: 20px;&quot;&gt;values1_1&lt;/font&gt;" style="rounded=0;whiteSpace=wrap;html=1;" vertex="1" parent="1">
          <mxGeometry x="230" y="240" width="90" height="40" as="geometry" />
        </mxCell>
        <mxCell id="3Yn5QqjvRgR_XOIUeVAF-47" style="edgeStyle=orthogonalEdgeStyle;rounded=0;orthogonalLoop=1;jettySize=auto;html=1;entryX=0;entryY=0.5;entryDx=0;entryDy=0;" edge="1" parent="1" target="3Yn5QqjvRgR_XOIUeVAF-46">
          <mxGeometry relative="1" as="geometry">
            <mxPoint x="450" y="260" as="sourcePoint" />
          </mxGeometry>
        </mxCell>
        <mxCell id="3Yn5QqjvRgR_XOIUeVAF-43" value="&lt;h4 style=&quot;box-sizing: border-box; break-after: avoid-page; break-inside: avoid; orphans: 4; font-size: 1.25em; margin-top: 1rem; margin-bottom: 1rem; position: relative; line-height: 1.4; cursor: text; white-space-collapse: preserve; color: rgb(51, 51, 51); font-family: &amp;quot;Open Sans&amp;quot;, &amp;quot;Clear Sans&amp;quot;, &amp;quot;Helvetica Neue&amp;quot;, Helvetica, Arial, &amp;quot;Segoe UI Emoji&amp;quot;, sans-serif; text-align: start;&quot; class=&quot;md-end-block md-heading md-focus&quot;&gt;&lt;span style=&quot;box-sizing: border-box;&quot; class=&quot;md-plain md-expand&quot;&gt;elements_ptr&lt;/span&gt;&lt;/h4&gt;" style="rounded=0;whiteSpace=wrap;html=1;" vertex="1" parent="1">
          <mxGeometry x="320" y="240" width="100" height="40" as="geometry" />
        </mxCell>
        <mxCell id="3Yn5QqjvRgR_XOIUeVAF-45" value="&lt;h4 style=&quot;box-sizing: border-box; break-after: avoid-page; break-inside: avoid; orphans: 4; font-size: 1.25em; margin-top: 1rem; margin-bottom: 1rem; position: relative; line-height: 1.4; cursor: text; white-space-collapse: preserve; color: rgb(51, 51, 51); font-family: &amp;quot;Open Sans&amp;quot;, &amp;quot;Clear Sans&amp;quot;, &amp;quot;Helvetica Neue&amp;quot;, Helvetica, Arial, &amp;quot;Segoe UI Emoji&amp;quot;, sans-serif; text-align: start;&quot; class=&quot;md-end-block md-heading md-focus&quot;&gt;&lt;span style=&quot;box-sizing: border-box;&quot; class=&quot;md-plain md-expand&quot;&gt;elements_ptr&lt;/span&gt;&lt;/h4&gt;" style="rounded=0;whiteSpace=wrap;html=1;" vertex="1" parent="1">
          <mxGeometry x="610" y="240" width="100" height="40" as="geometry" />
        </mxCell>
        <mxCell id="3Yn5QqjvRgR_XOIUeVAF-46" value="&lt;font style=&quot;font-size: 20px;&quot;&gt;values1_2&lt;/font&gt;" style="rounded=0;whiteSpace=wrap;html=1;" vertex="1" parent="1">
          <mxGeometry x="520" y="240" width="90" height="40" as="geometry" />
        </mxCell>
        <mxCell id="3Yn5QqjvRgR_XOIUeVAF-48" value="&lt;font style=&quot;font-size: 20px;&quot;&gt;values2_1&lt;/font&gt;" style="rounded=0;whiteSpace=wrap;html=1;" vertex="1" parent="1">
          <mxGeometry x="230" y="380" width="90" height="40" as="geometry" />
        </mxCell>
        <mxCell id="3Yn5QqjvRgR_XOIUeVAF-49" style="edgeStyle=orthogonalEdgeStyle;rounded=0;orthogonalLoop=1;jettySize=auto;html=1;exitX=1;exitY=0.5;exitDx=0;exitDy=0;entryX=0;entryY=0.5;entryDx=0;entryDy=0;" edge="1" target="3Yn5QqjvRgR_XOIUeVAF-52" parent="1">
          <mxGeometry relative="1" as="geometry">
            <mxPoint x="490" y="400" as="sourcePoint" />
          </mxGeometry>
        </mxCell>
        <mxCell id="3Yn5QqjvRgR_XOIUeVAF-50" value="&lt;h4 style=&quot;box-sizing: border-box; break-after: avoid-page; break-inside: avoid; orphans: 4; font-size: 1.25em; margin-top: 1rem; margin-bottom: 1rem; position: relative; line-height: 1.4; cursor: text; white-space-collapse: preserve; color: rgb(51, 51, 51); font-family: &amp;quot;Open Sans&amp;quot;, &amp;quot;Clear Sans&amp;quot;, &amp;quot;Helvetica Neue&amp;quot;, Helvetica, Arial, &amp;quot;Segoe UI Emoji&amp;quot;, sans-serif; text-align: start;&quot; class=&quot;md-end-block md-heading md-focus&quot;&gt;&lt;span style=&quot;box-sizing: border-box;&quot; class=&quot;md-plain md-expand&quot;&gt;elements_ptr&lt;/span&gt;&lt;/h4&gt;" style="rounded=0;whiteSpace=wrap;html=1;" vertex="1" parent="1">
          <mxGeometry x="320" y="380" width="100" height="40" as="geometry" />
        </mxCell>
        <mxCell id="3Yn5QqjvRgR_XOIUeVAF-51" value="&lt;h4 style=&quot;box-sizing: border-box; break-after: avoid-page; break-inside: avoid; orphans: 4; font-size: 1.25em; margin-top: 1rem; margin-bottom: 1rem; position: relative; line-height: 1.4; cursor: text; white-space-collapse: preserve; color: rgb(51, 51, 51); font-family: &amp;quot;Open Sans&amp;quot;, &amp;quot;Clear Sans&amp;quot;, &amp;quot;Helvetica Neue&amp;quot;, Helvetica, Arial, &amp;quot;Segoe UI Emoji&amp;quot;, sans-serif; text-align: start;&quot; class=&quot;md-end-block md-heading md-focus&quot;&gt;&lt;span style=&quot;box-sizing: border-box;&quot; class=&quot;md-plain md-expand&quot;&gt;elements_ptr&lt;/span&gt;&lt;/h4&gt;" style="rounded=0;whiteSpace=wrap;html=1;" vertex="1" parent="1">
          <mxGeometry x="610" y="380" width="100" height="40" as="geometry" />
        </mxCell>
        <mxCell id="3Yn5QqjvRgR_XOIUeVAF-52" value="&lt;font style=&quot;font-size: 20px;&quot;&gt;values2_2&lt;/font&gt;" style="rounded=0;whiteSpace=wrap;html=1;" vertex="1" parent="1">
          <mxGeometry x="520" y="380" width="90" height="40" as="geometry" />
        </mxCell>
        <mxCell id="3Yn5QqjvRgR_XOIUeVAF-54" value="&lt;font style=&quot;font-size: 20px;&quot;&gt;values3_1&lt;/font&gt;" style="rounded=0;whiteSpace=wrap;html=1;" vertex="1" parent="1">
          <mxGeometry x="230" y="520" width="90" height="40" as="geometry" />
        </mxCell>
        <mxCell id="3Yn5QqjvRgR_XOIUeVAF-55" style="edgeStyle=orthogonalEdgeStyle;rounded=0;orthogonalLoop=1;jettySize=auto;html=1;exitX=1;exitY=0.5;exitDx=0;exitDy=0;entryX=0;entryY=0.5;entryDx=0;entryDy=0;" edge="1" target="3Yn5QqjvRgR_XOIUeVAF-58" parent="1">
          <mxGeometry relative="1" as="geometry">
            <mxPoint x="490" y="540" as="sourcePoint" />
          </mxGeometry>
        </mxCell>
        <mxCell id="3Yn5QqjvRgR_XOIUeVAF-56" value="&lt;h4 style=&quot;box-sizing: border-box; break-after: avoid-page; break-inside: avoid; orphans: 4; font-size: 1.25em; margin-top: 1rem; margin-bottom: 1rem; position: relative; line-height: 1.4; cursor: text; white-space-collapse: preserve; color: rgb(51, 51, 51); font-family: &amp;quot;Open Sans&amp;quot;, &amp;quot;Clear Sans&amp;quot;, &amp;quot;Helvetica Neue&amp;quot;, Helvetica, Arial, &amp;quot;Segoe UI Emoji&amp;quot;, sans-serif; text-align: start;&quot; class=&quot;md-end-block md-heading md-focus&quot;&gt;&lt;span style=&quot;box-sizing: border-box;&quot; class=&quot;md-plain md-expand&quot;&gt;elements_ptr&lt;/span&gt;&lt;/h4&gt;" style="rounded=0;whiteSpace=wrap;html=1;" vertex="1" parent="1">
          <mxGeometry x="320" y="520" width="100" height="40" as="geometry" />
        </mxCell>
        <mxCell id="3Yn5QqjvRgR_XOIUeVAF-57" value="&lt;h4 style=&quot;box-sizing: border-box; break-after: avoid-page; break-inside: avoid; orphans: 4; font-size: 1.25em; margin-top: 1rem; margin-bottom: 1rem; position: relative; line-height: 1.4; cursor: text; white-space-collapse: preserve; color: rgb(51, 51, 51); font-family: &amp;quot;Open Sans&amp;quot;, &amp;quot;Clear Sans&amp;quot;, &amp;quot;Helvetica Neue&amp;quot;, Helvetica, Arial, &amp;quot;Segoe UI Emoji&amp;quot;, sans-serif; text-align: start;&quot; class=&quot;md-end-block md-heading md-focus&quot;&gt;&lt;span style=&quot;box-sizing: border-box;&quot; class=&quot;md-plain md-expand&quot;&gt;elements_ptr&lt;/span&gt;&lt;/h4&gt;" style="rounded=0;whiteSpace=wrap;html=1;" vertex="1" parent="1">
          <mxGeometry x="610" y="520" width="100" height="40" as="geometry" />
        </mxCell>
        <mxCell id="3Yn5QqjvRgR_XOIUeVAF-58" value="&lt;font style=&quot;font-size: 20px;&quot;&gt;values3_2&lt;/font&gt;" style="rounded=0;whiteSpace=wrap;html=1;" vertex="1" parent="1">
          <mxGeometry x="520" y="520" width="90" height="40" as="geometry" />
        </mxCell>
        <mxCell id="3Yn5QqjvRgR_XOIUeVAF-61" value="" style="shape=curlyBracket;whiteSpace=wrap;html=1;rounded=1;labelPosition=left;verticalLabelPosition=middle;align=right;verticalAlign=middle;" vertex="1" parent="1">
          <mxGeometry x="-100" y="255" width="20" height="280" as="geometry" />
        </mxCell>
        <mxCell id="3Yn5QqjvRgR_XOIUeVAF-62" value="TimeList" style="text;strokeColor=none;fillColor=none;html=1;fontSize=24;fontStyle=1;verticalAlign=middle;align=center;" vertex="1" parent="1">
          <mxGeometry x="-210" y="375" width="100" height="40" as="geometry" />
        </mxCell>
        <mxCell id="3Yn5QqjvRgR_XOIUeVAF-64" value="" style="shape=curlyBracket;whiteSpace=wrap;html=1;rounded=1;labelPosition=left;verticalLabelPosition=middle;align=right;verticalAlign=middle;rotation=90;" vertex="1" parent="1">
          <mxGeometry x="50" y="160" width="20" height="120" as="geometry" />
        </mxCell>
        <mxCell id="3Yn5QqjvRgR_XOIUeVAF-65" value="Time" style="text;strokeColor=none;fillColor=none;html=1;fontSize=24;fontStyle=1;verticalAlign=middle;align=center;" vertex="1" parent="1">
          <mxGeometry x="10" y="175" width="100" height="40" as="geometry" />
        </mxCell>
        <mxCell id="3Yn5QqjvRgR_XOIUeVAF-66" value="Event" style="text;strokeColor=none;fillColor=none;html=1;fontSize=24;fontStyle=1;verticalAlign=middle;align=center;" vertex="1" parent="1">
          <mxGeometry x="271" y="175" width="100" height="40" as="geometry" />
        </mxCell>
        <mxCell id="3Yn5QqjvRgR_XOIUeVAF-67" value="" style="shape=curlyBracket;whiteSpace=wrap;html=1;rounded=1;labelPosition=left;verticalLabelPosition=middle;align=right;verticalAlign=middle;rotation=90;" vertex="1" parent="1">
          <mxGeometry x="310" y="160" width="20" height="120" as="geometry" />
        </mxCell>
        <mxCell id="3Yn5QqjvRgR_XOIUeVAF-69" value="" style="shape=curlyBracket;whiteSpace=wrap;html=1;rounded=1;labelPosition=left;verticalLabelPosition=middle;align=right;verticalAlign=middle;rotation=-90;" vertex="1" parent="1">
          <mxGeometry x="474.38" y="85.63" width="20" height="446.25" as="geometry" />
        </mxCell>
        <mxCell id="3Yn5QqjvRgR_XOIUeVAF-70" value="EventList" style="text;strokeColor=none;fillColor=none;html=1;fontSize=24;fontStyle=1;verticalAlign=middle;align=center;" vertex="1" parent="1">
          <mxGeometry x="434.38" y="310" width="100" height="40" as="geometry" />
        </mxCell>
        <mxCell id="3Yn5QqjvRgR_XOIUeVAF-89" style="edgeStyle=orthogonalEdgeStyle;rounded=0;orthogonalLoop=1;jettySize=auto;html=1;exitX=0.5;exitY=1;exitDx=0;exitDy=0;entryX=0.5;entryY=0;entryDx=0;entryDy=0;startArrow=classic;startFill=1;" edge="1" parent="1" source="3Yn5QqjvRgR_XOIUeVAF-76" target="3Yn5QqjvRgR_XOIUeVAF-79">
          <mxGeometry relative="1" as="geometry" />
        </mxCell>
        <mxCell id="3Yn5QqjvRgR_XOIUeVAF-76" value="" style="rounded=0;whiteSpace=wrap;html=1;" vertex="1" parent="1">
          <mxGeometry x="-70" y="240" width="40" height="40" as="geometry" />
        </mxCell>
        <mxCell id="3Yn5QqjvRgR_XOIUeVAF-77" value="" style="shape=waypoint;sketch=0;fillStyle=solid;size=6;pointerEvents=1;points=[];fillColor=none;resizable=0;rotatable=0;perimeter=centerPerimeter;snapToPoint=1;" vertex="1" parent="1">
          <mxGeometry x="-60" y="250" width="20" height="20" as="geometry" />
        </mxCell>
        <mxCell id="3Yn5QqjvRgR_XOIUeVAF-78" value="" style="shape=waypoint;sketch=0;fillStyle=solid;size=6;pointerEvents=1;points=[];fillColor=none;resizable=0;rotatable=0;perimeter=centerPerimeter;snapToPoint=1;" vertex="1" parent="1">
          <mxGeometry x="-60" y="390" width="20" height="20" as="geometry" />
        </mxCell>
        <mxCell id="3Yn5QqjvRgR_XOIUeVAF-90" style="edgeStyle=orthogonalEdgeStyle;rounded=0;orthogonalLoop=1;jettySize=auto;html=1;exitX=0.5;exitY=1;exitDx=0;exitDy=0;entryX=0.5;entryY=0;entryDx=0;entryDy=0;startArrow=classic;startFill=1;" edge="1" parent="1" source="3Yn5QqjvRgR_XOIUeVAF-79" target="3Yn5QqjvRgR_XOIUeVAF-81">
          <mxGeometry relative="1" as="geometry" />
        </mxCell>
        <mxCell id="3Yn5QqjvRgR_XOIUeVAF-79" value="" style="rounded=0;whiteSpace=wrap;html=1;" vertex="1" parent="1">
          <mxGeometry x="-70" y="380" width="40" height="40" as="geometry" />
        </mxCell>
        <mxCell id="3Yn5QqjvRgR_XOIUeVAF-80" value="" style="shape=waypoint;sketch=0;fillStyle=solid;size=6;pointerEvents=1;points=[];fillColor=none;resizable=0;rotatable=0;perimeter=centerPerimeter;snapToPoint=1;" vertex="1" parent="1">
          <mxGeometry x="-60" y="530" width="20" height="20" as="geometry" />
        </mxCell>
        <mxCell id="3Yn5QqjvRgR_XOIUeVAF-81" value="" style="rounded=0;whiteSpace=wrap;html=1;" vertex="1" parent="1">
          <mxGeometry x="-70" y="520" width="40" height="40" as="geometry" />
        </mxCell>
        <mxCell id="3Yn5QqjvRgR_XOIUeVAF-82" value="" style="shape=waypoint;sketch=0;fillStyle=solid;size=6;pointerEvents=1;points=[];fillColor=none;resizable=0;rotatable=0;perimeter=centerPerimeter;snapToPoint=1;" vertex="1" parent="1">
          <mxGeometry x="-60" y="390" width="20" height="20" as="geometry" />
        </mxCell>
        <mxCell id="3Yn5QqjvRgR_XOIUeVAF-83" value="" style="shape=waypoint;sketch=0;fillStyle=solid;size=6;pointerEvents=1;points=[];fillColor=none;resizable=0;rotatable=0;perimeter=centerPerimeter;snapToPoint=1;" vertex="1" parent="1">
          <mxGeometry x="-60" y="530" width="20" height="20" as="geometry" />
        </mxCell>
        <mxCell id="3Yn5QqjvRgR_XOIUeVAF-94" value="" style="rounded=0;whiteSpace=wrap;html=1;" vertex="1" parent="1">
          <mxGeometry x="416.25" y="240" width="40" height="40" as="geometry" />
        </mxCell>
        <mxCell id="3Yn5QqjvRgR_XOIUeVAF-95" value="" style="shape=waypoint;sketch=0;fillStyle=solid;size=6;pointerEvents=1;points=[];fillColor=none;resizable=0;rotatable=0;perimeter=centerPerimeter;snapToPoint=1;" vertex="1" parent="1">
          <mxGeometry x="426.25" y="250" width="20" height="20" as="geometry" />
        </mxCell>
        <mxCell id="3Yn5QqjvRgR_XOIUeVAF-109" value="" style="edgeStyle=orthogonalEdgeStyle;rounded=0;orthogonalLoop=1;jettySize=auto;html=1;" edge="1" parent="1" source="3Yn5QqjvRgR_XOIUeVAF-98" target="3Yn5QqjvRgR_XOIUeVAF-52">
          <mxGeometry relative="1" as="geometry" />
        </mxCell>
        <mxCell id="3Yn5QqjvRgR_XOIUeVAF-98" value="" style="rounded=0;whiteSpace=wrap;html=1;" vertex="1" parent="1">
          <mxGeometry x="420" y="380" width="40" height="40" as="geometry" />
        </mxCell>
        <mxCell id="3Yn5QqjvRgR_XOIUeVAF-99" value="" style="shape=waypoint;sketch=0;fillStyle=solid;size=6;pointerEvents=1;points=[];fillColor=none;resizable=0;rotatable=0;perimeter=centerPerimeter;snapToPoint=1;" vertex="1" parent="1">
          <mxGeometry x="430" y="390" width="20" height="20" as="geometry" />
        </mxCell>
        <mxCell id="3Yn5QqjvRgR_XOIUeVAF-110" value="" style="edgeStyle=orthogonalEdgeStyle;rounded=0;orthogonalLoop=1;jettySize=auto;html=1;" edge="1" parent="1" source="3Yn5QqjvRgR_XOIUeVAF-100" target="3Yn5QqjvRgR_XOIUeVAF-58">
          <mxGeometry relative="1" as="geometry" />
        </mxCell>
        <mxCell id="3Yn5QqjvRgR_XOIUeVAF-100" value="" style="rounded=0;whiteSpace=wrap;html=1;" vertex="1" parent="1">
          <mxGeometry x="420" y="520" width="40" height="40" as="geometry" />
        </mxCell>
        <mxCell id="3Yn5QqjvRgR_XOIUeVAF-101" value="" style="shape=waypoint;sketch=0;fillStyle=solid;size=6;pointerEvents=1;points=[];fillColor=none;resizable=0;rotatable=0;perimeter=centerPerimeter;snapToPoint=1;" vertex="1" parent="1">
          <mxGeometry x="430" y="530" width="20" height="20" as="geometry" />
        </mxCell>
        <mxCell id="3Yn5QqjvRgR_XOIUeVAF-102" value="" style="rounded=0;whiteSpace=wrap;html=1;" vertex="1" parent="1">
          <mxGeometry x="710" y="240" width="40" height="40" as="geometry" />
        </mxCell>
        <mxCell id="3Yn5QqjvRgR_XOIUeVAF-103" value="" style="shape=waypoint;sketch=0;fillStyle=solid;size=6;pointerEvents=1;points=[];fillColor=none;resizable=0;rotatable=0;perimeter=centerPerimeter;snapToPoint=1;" vertex="1" parent="1">
          <mxGeometry x="720" y="250" width="20" height="20" as="geometry" />
        </mxCell>
        <mxCell id="3Yn5QqjvRgR_XOIUeVAF-104" value="" style="rounded=0;whiteSpace=wrap;html=1;" vertex="1" parent="1">
          <mxGeometry x="710" y="380" width="40" height="40" as="geometry" />
        </mxCell>
        <mxCell id="3Yn5QqjvRgR_XOIUeVAF-105" value="" style="shape=waypoint;sketch=0;fillStyle=solid;size=6;pointerEvents=1;points=[];fillColor=none;resizable=0;rotatable=0;perimeter=centerPerimeter;snapToPoint=1;" vertex="1" parent="1">
          <mxGeometry x="720" y="390" width="20" height="20" as="geometry" />
        </mxCell>
        <mxCell id="3Yn5QqjvRgR_XOIUeVAF-106" value="" style="rounded=0;whiteSpace=wrap;html=1;" vertex="1" parent="1">
          <mxGeometry x="710" y="520" width="40" height="40" as="geometry" />
        </mxCell>
        <mxCell id="3Yn5QqjvRgR_XOIUeVAF-107" value="" style="shape=waypoint;sketch=0;fillStyle=solid;size=6;pointerEvents=1;points=[];fillColor=none;resizable=0;rotatable=0;perimeter=centerPerimeter;snapToPoint=1;" vertex="1" parent="1">
          <mxGeometry x="720" y="530" width="20" height="20" as="geometry" />
        </mxCell>
      </root>
    </mxGraphModel>
  </diagram>
</mxfile>
